Coordinates
version=1
nRows=5
nColumns=40
inDegrees=yes

Units are S.I. units (second, meters, Newtons, ...)
Angles are in degrees.

endheader
time	pelvis_tilt	pelvis_list	pelvis_rotation	pelvis_tx	pelvis_ty	pelvis_tz	hip_flexion_r	hip_adduction_r	hip_rotation_r	knee_angle_r	knee_angle_r_beta	ankle_angle_r	subtalar_angle_r	mtp_angle_r	hip_flexion_l	hip_adduction_l	hip_rotation_l	knee_angle_l	knee_angle_l_beta	ankle_angle_l	subtalar_angle_l	mtp_angle_l	lumbar_extension	lumbar_bending	lumbar_rotation	arm_flex_r	arm_add_r	arm_rot_r	elbow_flex_r	pro_sup_r	wrist_flex_r	wrist_dev_r	arm_flex_l	arm_add_l	arm_rot_l	elbow_flex_l	pro_sup_l	wrist_flex_l	wrist_dev_l
     32.25000000	     -4.00684858	     -5.80587224	     -3.17355042	      0.71390236	      0.91596432	      0.32106636	     26.04584169	     -5.72047449	     -4.26615189	     64.81438699	     64.81438699	      1.34225172	    -16.34537582	     -0.15640888	     18.72840693	     -5.01835150	     -3.61954666	     33.16090069	     33.16090069	     20.49214004	    -17.99368618	      8.50648108	    -12.96646460	      5.95571007	      3.80158822	      5.73455370	    -12.81379772	     -1.32576896	     25.46817572	     46.26438644	      0.00000000	      0.00000000	     16.14595874	    -15.61874499	      6.06585101	     35.65534240	     46.14147033	      0.00000000	      0.00000000
     32.26885714	     -3.89782001	     -5.87043064	     -3.70718573	      0.71290034	      0.91509335	      0.32105442	     27.44447878	     -5.68408253	     -4.09935629	     65.35681215	     65.35681215	      1.96694234	    -16.47955616	      1.30628139	     18.42155781	     -5.14643342	     -3.92085852	     33.64765414	     33.64765414	     21.14670074	    -18.15658832	      8.95691247	    -13.30797685	      6.14732552	      3.50463600	      3.62461131	    -12.81249435	     -1.70463511	     24.99163133	     46.29987154	      0.00000000	      0.00000000	     16.78313840	    -15.83780185	      5.82072764	     36.59167581	     46.18568057	      0.00000000	      0.00000000
     32.28771429	     -3.85294462	     -5.93245722	     -4.27724718	      0.71185466	      0.91458355	      0.32141003	     28.80457740	     -5.57263076	     -3.91182806	     65.21510999	     65.21510999	      3.26333057	    -16.22773763	      3.84809068	     18.07341056	     -5.27862123	     -4.20756939	     33.95208245	     33.95208245	     22.00766031	    -18.22053704	     10.14546789	    -13.65334861	      6.35147004	      3.22496363	      1.47300857	    -12.62291999	     -3.26686250	     25.27695868	     46.40770854	      0.00000000	      0.00000000	     17.06480629	    -16.09454616	      5.02280759	     38.51921693	     46.29798341	      0.00000000	      0.00000000
     32.30657143	     -3.93306661	     -6.00142581	     -4.87954933	      0.71085107	      0.91451414	      0.32220113	     29.97290191	     -5.42108795	     -3.86604012	     64.00636571	     64.00636571	      3.91166507	    -16.13387937	      3.70797377	     17.65398684	     -5.47128705	     -4.62248391	     33.85456576	     33.85456576	     22.25909890	    -18.34065159	     10.13868758	    -13.78095884	      6.53997909	      2.68740151	     -0.07031563	    -12.54118878	     -3.32440817	     24.68862968	     46.42360216	      0.00000000	      0.00000000	     17.66215551	    -16.51138871	      4.84075837	     38.89149149	     46.32838691	      0.00000000	      0.00000000
     32.32542857	     -4.06672959	     -6.08242605	     -5.58233620	      0.70989240	      0.91492201	      0.32348250	     30.96142298	     -5.16888320	     -3.84101572	     61.92687685	     61.92687685	      4.56870181	    -15.74513353	      3.08327683	     17.11960805	     -5.72985887	     -5.19139581	     33.48979664	     33.48979664	     22.47666693	    -18.32734273	     10.20899328	    -13.94533811	      6.67633801	      3.35778046	     -2.14967754	    -12.54642094	     -3.68429539	     23.97166844	     46.46821553	      0.00000000	      0.00000000	     18.55579000	    -16.19832821	      4.26295270	     40.73517943	     46.41693253	      0.00000000	      0.00000000
